subject11_noload_free_trial03_ground_reaction
version=1
nRows=24
nColumns=19
inDegrees=no
endheader
time	ground_force_r_vx	ground_force_r_vy	ground_force_r_vz	ground_force_r_px	ground_force_r_py	ground_force_r_pz	ground_torque_r_x	ground_torque_r_y	ground_torque_r_z	ground_force_l_vx	ground_force_l_vy	ground_force_l_vz	ground_force_l_px	ground_force_l_py	ground_force_l_pz	ground_torque_l_x	ground_torque_l_y	ground_torque_l_z
      0.59000000	    -39.13701100	    642.67971200	    -32.34390000	      0.16248300	      0.00000000	     -0.17017400	      0.00000000	      3.48132000	      0.00000000	      0.00000000	      0.00000000	      0.00000000	      5.26455200	      0.00000000	    -12.66454400	      0.00000000	      0.00000000	      0.00000000
      0.60000000	    -33.04100900	    627.82864300	    -29.98717700	      0.16603700	      0.00000000	     -0.16982000	      0.00000000	      3.61464000	      0.00000000	      0.00000000	      0.00000000	      0.00000000	      4.76890100	      0.00000000	    -11.19677700	      0.00000000	      0.00000000	      0.00000000
      0.61000000	    -27.67393000	    616.80112100	    -28.08245500	      0.16964600	      0.00000000	     -0.16945600	      0.00000000	      3.77824500	      0.00000000	      0.00000000	      0.00000000	      0.00000000	      4.31104700	      0.00000000	     -9.85032500	      0.00000000	      0.00000000	      0.00000000
      0.62000000	    -22.94542200	    609.16897700	    -26.77638200	      0.17326100	      0.00000000	     -0.16907500	      0.00000000	      3.96242000	      0.00000000	      0.00000000	      0.00000000	      0.00000000	      3.88948900	      0.00000000	     -8.61994500	      0.00000000	      0.00000000	      0.00000000
      0.63000000	    -18.71306200	    604.67735700	    -26.11230200	      0.17676700	      0.00000000	     -0.16868200	      0.00000000	      4.16166000	      0.00000000	      0.00000000	      0.00000000	      0.00000000	      3.50272500	      0.00000000	     -7.50039500	      0.00000000	      0.00000000	      0.00000000
      0.64000000	    -14.83632200	    603.38895000	    -26.06923900	      0.18015200	      0.00000000	     -0.16829300	      0.00000000	      4.37646900	      0.00000000	      0.00000000	      0.00000000	      0.00000000	      3.14925300	      0.00000000	     -6.48643300	      0.00000000	      0.00000000	      0.00000000
      0.65000000	    -11.10271200	    605.54701900	    -26.57155000	      0.18344200	      0.00000000	     -0.16791300	      0.00000000	      4.62556400	      0.00000000	      0.00000000	      0.00000000	      0.00000000	      2.82757100	      0.00000000	     -5.57281700	      0.00000000	      0.00000000	      0.00000000
      0.66000000	     -7.21835200	    611.44668200	    -27.54253700	      0.18662400	      0.00000000	     -0.16753700	      0.00000000	      4.93138800	      0.00000000	      0.00000000	      0.00000000	      0.00000000	      2.53617800	      0.00000000	     -4.75430400	      0.00000000	      0.00000000	      0.00000000
      0.67000000	     -2.89994500	    621.30204700	    -28.87506500	      0.18960300	      0.00000000	     -0.16715700	      0.00000000	      5.29138000	      0.00000000	      0.00000000	      0.00000000	      0.00000000	      2.27357200	      0.00000000	     -4.02565100	      0.00000000	      0.00000000	      0.00000000
      0.68000000	      2.02357000	    635.16443000	    -30.48324900	      0.19231900	      0.00000000	     -0.16678700	      0.00000000	      5.68958200	      0.00000000	      0.00000000	      0.00000000	      0.00000000	      2.03825000	      0.00000000	     -3.38161700	      0.00000000	      0.00000000	      0.00000000
      0.69000000	      7.59329700	    652.83626000	    -32.28444400	      0.19482000	      0.00000000	     -0.16645000	      0.00000000	      6.11293100	      0.00000000	      0.00000000	      0.00000000	      0.00000000	      1.82871100	      0.00000000	     -2.81695900	      0.00000000	      0.00000000	      0.00000000
      0.70000000	     13.73369400	    673.85365800	    -34.20676200	      0.19721200	      0.00000000	     -0.16616200	      0.00000000	      6.55039700	      0.00000000	      0.00000000	      0.00000000	      0.00000000	      1.64345200	      0.00000000	     -2.32643400	      0.00000000	      0.00000000	      0.00000000
      0.71000000	     20.31993200	    697.57030500	    -36.18929100	      0.19966000	      0.00000000	     -0.16592200	      0.00000000	      6.98081800	      0.00000000	      0.00000000	      0.00000000	      0.00000000	      1.48097300	      0.00000000	     -1.90480000	      0.00000000	      0.00000000	      0.00000000
      0.72000000	     27.18935000	    723.15130500	    -38.20672100	      0.20231900	      0.00000000	     -0.16571800	      0.00000000	      7.39232300	      0.00000000	      0.00000000	      0.00000000	      0.00000000	      1.33977100	      0.00000000	     -1.54681500	      0.00000000	      0.00000000	      0.00000000
      0.73000000	     34.17217700	    749.72270700	    -40.24977600	      0.20530600	      0.00000000	     -0.16553900	      0.00000000	      7.75966100	      0.00000000	      0.00000000	      0.00000000	      0.00000000	      1.21834400	      0.00000000	     -1.24723700	      0.00000000	      0.00000000	      0.00000000
      0.74000000	     41.14386500	    776.46054100	    -42.29142300	      0.20864300	      0.00000000	     -0.16537300	      0.00000000	      8.02610500	      0.00000000	      0.00000000	      0.00000000	      0.00000000	      1.11519000	      0.00000000	     -1.00082200	      0.00000000	      0.00000000	      0.00000000
      0.75000000	     48.00075600	    802.66311600	    -44.33286900	      0.21232000	      0.00000000	     -0.16521400	      0.00000000	      8.17434300	      0.00000000	      0.00000000	      0.00000000	      0.00000000	      1.02880800	      0.00000000	     -0.80232900	      0.00000000	      0.00000000	      0.00000000
      0.76000000	     54.69564300	    827.77784500	    -46.34615600	      0.21630900	      0.00000000	     -0.16506900	      0.00000000	      8.19934800	      0.00000000	      0.00000000	      0.00000000	      0.00000000	      0.95769600	      0.00000000	     -0.64651600	      0.00000000	      0.00000000	      0.00000000
      0.77000000	     61.21190600	    851.40029300	    -48.27436800	      0.22060700	      0.00000000	     -0.16497400	      0.00000000	      8.10235300	      0.00000000	      0.00000000	      0.00000000	      0.00000000	      0.90035100	      0.00000000	     -0.52813900	      0.00000000	      0.00000000	      0.00000000
      0.78000000	     67.51892300	    873.24167500	    -50.01411500	      0.22509600	      0.00000000	     -0.16495700	      0.00000000	      7.87399400	      0.00000000	      0.00000000	      0.00000000	      0.00000000	      0.85527300	      0.00000000	     -0.44195700	      0.00000000	      0.00000000	      0.00000000
      0.79000000	     73.73600100	    893.25481600	    -51.42385400	      0.22961400	      0.00000000	     -0.16504200	      0.00000000	      7.51687200	      0.00000000	      0.00000000	      0.00000000	      0.00000000	      0.82095800	      0.00000000	     -0.38272800	      0.00000000	      0.00000000	      0.00000000
      0.80000000	     80.27274000	    911.41134600	    -52.43156600	      0.23407000	      0.00000000	     -0.16524400	      0.00000000	      7.07557400	      0.00000000	      0.00000000	      0.00000000	      0.00000000	      0.79590500	      0.00000000	     -0.34520800	      0.00000000	      0.00000000	      0.00000000
      0.81000000	     87.55680300	    926.97463900	    -53.02608800	      0.23829900	      0.00000000	     -0.16555700	      0.00000000	      6.58549400	      0.00000000	      0.00000000	      0.00000000	      0.00000000	      0.77861300	      0.00000000	     -0.32415500	      0.00000000	      0.00000000	      0.00000000
      0.82000000	     95.76249200	    938.30758300	    -53.23476500	      0.24222600	      0.00000000	     -0.16596900	      0.00000000	      6.06548000	      0.00000000	      3.40150500	      6.33546300	      1.85010600	      0.76757900	      0.00000000	     -0.31432600	      0.00000000	     -1.01347100	      0.00000000
